<svg id="visual" viewBox="0 0 900 600" width="900" height="600" xmlns="http://www.w3.org/2000/svg" xmlns:xlink="http://www.w3.org/1999/xlink" version="1.1"><rect x="0" y="0" width="900" height="600" fill="#001220"></rect><path d="M0 496L21.5 488.7C43 481.3 86 466.7 128.8 459.2C171.7 451.7 214.3 451.3 257.2 457.8C300 464.3 343 477.7 385.8 479.8C428.7 482 471.3 473 514.2 472.5C557 472 600 480 642.8 487.2C685.7 494.3 728.3 500.7 771.2 497.5C814 494.3 857 481.7 878.5 475.3L900 469L900 601L878.5 601C857 601 814 601 771.2 601C728.3 601 685.7 601 642.8 601C600 601 557 601 514.2 601C471.3 601 428.7 601 385.8 601C343 601 300 601 257.2 601C214.3 601 171.7 601 128.8 601C86 601 43 601 21.5 601L0 601Z" fill="#fa7268"></path><path d="M0 508L21.5 510.8C43 513.7 86 519.3 128.8 523.3C171.7 527.3 214.3 529.7 257.2 523.2C300 516.7 343 501.3 385.8 501.8C428.7 502.3 471.3 518.7 514.2 524.2C557 529.7 600 524.3 642.8 524.2C685.7 524 728.3 529 771.2 523.2C814 517.3 857 500.7 878.5 492.3L900 484L900 601L878.5 601C857 601 814 601 771.2 601C728.3 601 685.7 601 642.8 601C600 601 557 601 514.2 601C471.3 601 428.7 601 385.8 601C343 601 300 601 257.2 601C214.3 601 171.7 601 128.8 601C86 601 43 601 21.5 601L0 601Z" fill="#eb5967"></path><path d="M0 526L21.5 527.5C43 529 86 532 128.8 535.7C171.7 539.3 214.3 543.7 257.2 541.3C300 539 343 530 385.8 528.2C428.7 526.3 471.3 531.7 514.2 531.7C557 531.7 600 526.3 642.8 525.2C685.7 524 728.3 527 771.2 530.7C814 534.3 857 538.7 878.5 540.8L900 543L900 601L878.5 601C857 601 814 601 771.2 601C728.3 601 685.7 601 642.8 601C600 601 557 601 514.2 601C471.3 601 428.7 601 385.8 601C343 601 300 601 257.2 601C214.3 601 171.7 601 128.8 601C86 601 43 601 21.5 601L0 601Z" fill="#da3f67"></path><path d="M0 547L21.5 547C43 547 86 547 128.8 551C171.7 555 214.3 563 257.2 562.8C300 562.7 343 554.3 385.8 555.3C428.7 556.3 471.3 566.7 514.2 571C557 575.3 600 573.7 642.8 571C685.7 568.3 728.3 564.7 771.2 565.3C814 566 857 571 878.5 573.5L900 576L900 601L878.5 601C857 601 814 601 771.2 601C728.3 601 685.7 601 642.8 601C600 601 557 601 514.2 601C471.3 601 428.7 601 385.8 601C343 601 300 601 257.2 601C214.3 601 171.7 601 128.8 601C86 601 43 601 21.5 601L0 601Z" fill="#c62368"></path></svg>