<svg id="visual" viewBox="0 0 900 600" width="900" height="600" xmlns="http://www.w3.org/2000/svg" xmlns:xlink="http://www.w3.org/1999/xlink" version="1.1"><rect x="0" y="0" width="900" height="600" fill="#002233"></rect><path d="M0 450L21.5 441.3C43 432.7 86 415.3 128.8 417.3C171.7 419.3 214.3 440.7 257.2 438.7C300 436.7 343 411.3 385.8 420C428.7 428.7 471.3 471.3 514.2 491.5C557 511.7 600 509.3 642.8 504C685.7 498.7 728.3 490.3 771.2 478C814 465.7 857 449.3 878.5 441.2L900 433L900 601L878.5 601C857 601 814 601 771.2 601C728.3 601 685.7 601 642.8 601C600 601 557 601 514.2 601C471.3 601 428.7 601 385.8 601C343 601 300 601 257.2 601C214.3 601 171.7 601 128.8 601C86 601 43 601 21.5 601L0 601Z" fill="#0074ff" stroke-linecap="round" stroke-linejoin="miter"></path></svg>