<!DOCTYPE svg PUBLIC "-//W3C//DTD SVG 1.1//EN" "http://www.w3.org/Graphics/SVG/1.1/DTD/svg11.dtd">
<!-- Uploaded to: SVG Repo, www.svgrepo.com, Transformed by: SVG Repo Mixer Tools -->
<svg fill="#ffffff" version="1.1" id="Layer_1" xmlns="http://www.w3.org/2000/svg" xmlns:xlink="http://www.w3.org/1999/xlink" viewBox="0 0 512 512" xml:space="preserve" width="800px" height="800px" stroke="#ffffff">
<g id="SVGRepo_bgCarrier" stroke-width="0"/>
<g id="SVGRepo_tracerCarrier" stroke-linecap="round" stroke-linejoin="round"/>
<g id="SVGRepo_iconCarrier"> <g> <g> <rect x="300.522" y="150.261" width="133.565" height="33.391"/> </g> </g> <g> <g> <rect x="300.522" y="328.348" width="133.565" height="33.391"/> </g> </g> <g> <g> <rect x="300.522" y="239.304" width="133.565" height="33.391"/> </g> </g> <g> <g> <rect x="77.913" y="161.391" width="33.391" height="122.435"/> </g> </g> <g> <g> <rect x="222.609" y="161.391" width="33.391" height="122.435"/> </g> </g> <g> <g> <rect x="111.304" y="128" width="111.304" height="33.391"/> </g> </g> <g> <g> <polygon points="222.609,317.217 222.609,350.609 111.304,350.609 111.304,317.217 77.913,317.217 77.913,384 256,384 256,317.217 "/> </g> </g> <g> <g> <rect x="111.304" y="283.826" width="33.391" height="33.391"/> </g> </g> <g> <g> <rect x="189.217" y="283.826" width="33.391" height="33.391"/> </g> </g> <g> <g> <path d="M0,61.217v389.565h512V61.217H0z M478.609,417.391H33.391V94.609h445.217V417.391z"/> </g> </g> </g>
</svg>